<?xml version="1.0" encoding="UTF-8" standalone="no"?>
<!-- Created with Inkscape (http://www.inkscape.org/) -->

<svg
   width="123.278mm"
   height="108.10364mm"
   viewBox="0 0 123.278 108.10364"
   version="1.1"
   id="svg1"
   xml:space="preserve"
   inkscape:version="1.3 (0e150ed6c4, 2023-07-21)"
   sodipodi:docname="Zeichnung.svg"
   inkscape:export-filename="..\repos\pwaVue\my-project\public\logo2.svg"
   inkscape:export-xdpi="84.263489"
   inkscape:export-ydpi="84.263489"
   xmlns:inkscape="http://www.inkscape.org/namespaces/inkscape"
   xmlns:sodipodi="http://sodipodi.sourceforge.net/DTD/sodipodi-0.dtd"
   xmlns="http://www.w3.org/2000/svg"
   xmlns:svg="http://www.w3.org/2000/svg"><sodipodi:namedview
     id="namedview1"
     pagecolor="#ffffff"
     bordercolor="#000000"
     borderopacity="0.25"
     inkscape:showpageshadow="2"
     inkscape:pageopacity="0.0"
     inkscape:pagecheckerboard="0"
     inkscape:deskcolor="#d1d1d1"
     inkscape:document-units="mm"
     showgrid="true"
     inkscape:zoom="1.4778115"
     inkscape:cx="259.16702"
     inkscape:cy="206.7246"
     inkscape:window-width="1920"
     inkscape:window-height="1009"
     inkscape:window-x="-8"
     inkscape:window-y="-8"
     inkscape:window-maximized="1"
     inkscape:current-layer="layer1"
     inkscape:export-bgcolor="#ffffffff"><inkscape:grid
       id="grid14"
       units="mm"
       originx="-1.4900559"
       originy="-12.054189"
       spacingx="0.99999998"
       spacingy="1"
       empcolor="#0099e5"
       empopacity="0.30196078"
       color="#0099e5"
       opacity="0.14901961"
       empspacing="5"
       dotted="false"
       gridanglex="30"
       gridanglez="30"
       visible="true" /></sodipodi:namedview><defs
     id="defs1" /><g
     inkscape:label="Ebene 1"
     inkscape:groupmode="layer"
     id="layer1"
     transform="translate(-0.39424396,-3.1893374)"><path
       d="M 46.760114,8.4241258 C 33.001781,9.7646858 22.70067,14.068576 14.516225,21.900236 0.54622472,35.305796 -3.4048863,56.119686 4.2151137,75.910516 c 0.705556,1.83444 1.552222,4.02167 1.869722,4.83306 0.564445,1.37583 0.564445,1.51694 0,2.15194 -0.846666,0.91722 -0.740833,1.94028 0.246945,2.99861 1.799167,1.94028 4.0922223,5.50333 4.3038893,6.63222 0.423333,2.61056 0.529166,2.78694 1.834444,3.45722 1.869722,0.91722 4.515556,1.16417 7.972778,0.74084 3.668889,-0.45862 6.208889,-1.30528 8.5725,-2.92806 2.575278,-1.72861 7.584722,-2.68111 11.923889,-2.18722 1.905,0.17639 2.54,0.42333 3.774722,1.48166 2.892778,2.39889 7.972778,4.37445 14.358056,5.57389 6.491111,1.19945 22.083892,0.98778 25.294162,-0.35277 0.74084,-0.3175 1.905,-1.05834 2.54,-1.65806 1.30528,-1.30528 1.41111,-1.23472 2.54,1.62278 1.86973,4.762504 4.83306,6.949714 10.230561,7.619994 4.162778,0.49389 16.756938,0.45861 17.744718,-0.0706 2.32833,-1.19944 4.69195,-6.984994 5.715,-13.864154 0.635,-4.23333 0.67028,-11.95917 0.0706,-15.94556 -0.35278,-2.32833 -0.35278,-3.06916 0,-3.70416 0.9525,-1.76389 0.38805,-3.95111 -1.19945,-4.55084 -1.48166,-0.56444 -10.44222,-1.37583 -15.20472,-1.37583 -7.337778,0 -8.572499,0.56444 -13.193889,5.99722 -1.12889,1.37584 -1.69333,1.79917 -1.79917,1.41111 -0.10583,-0.28222 -0.59972,-1.86972 -1.12888,-3.52777 -0.52917,-1.65806 -2.01084,-5.18584 -3.28084,-7.90223 l -2.32833,-4.86833 1.02305,-0.84667 c 0.59973,-0.45861 2.18723,-1.41111 3.52778,-2.08139 2.15195,-1.05833 2.71639,-1.19944 4.23334,-1.02305 2.29305,0.24694 3.91583,-0.635 5.00944,-2.68111 0.529171,-0.98778 1.269999,-1.72861 2.151939,-2.15195 1.65806,-0.84666 2.18723,-1.86972 2.18723,-4.33916 0,-2.82223 -0.88195,-5.29167 -3.457227,-9.56028 -3.598332,-6.0325 -5.185832,-7.19667 -7.373052,-5.46806 -0.49389,0.38806 -1.02306,0.70556 -1.12889,0.70556 -0.14111,0 -1.19944,-1.37583 -2.39889,-3.10445 -4.26865,-6.03246 -10.830319,-11.81801 -16.47476,-14.5344 C 65.633725,9.1649558 55.40317,7.5774558 46.760114,8.4241258 Z m 16.227778,2.0461102 c 3.598333,0.81139 8.466667,2.8575 11.641667,4.93889 3.457223,2.25778 9.454442,8.255 12.700002,12.7 1.41111,1.94028 2.71639,3.66889 2.8575,3.84528 0.17639,0.21167 0.88194,-0.10583 1.69333,-0.77611 1.55222,-1.27 2.82222,-1.44639 3.63361,-0.52917 0.77611,0.91722 4.938889,7.54945 4.797779,7.69056 -0.0706,0.0706 -1.305278,-0.14111 -2.751669,-0.42334 -3.84528,-0.74083 -10.44222,-0.42333 -14.99305,0.74084 -5.221109,1.34055 -8.960558,3.35139 -12.170836,6.56166 -4.1275,4.09223 -5.644444,7.9375 -5.644444,14.11111 0,5.3975 1.481667,10.01889 4.868333,15.09889 0.670278,1.02306 1.128889,1.94028 1.023056,2.04611 -0.105834,0.10584 -2.187222,0.3175 -4.621389,0.49389 -5.115278,0.38806 -7.020278,1.02306 -8.431389,2.8575 -0.493889,0.67028 -0.987778,1.83445 -1.128889,2.61056 -0.388055,2.2225 -0.529167,2.64583 -1.058333,2.64583 -0.3175,0 -0.564445,0.70556 -0.705556,2.29306 -0.282222,2.46944 0.07056,3.35139 1.234722,3.35139 0.423334,0 0.705556,0.38805 0.846667,1.23472 0.3175,1.69333 2.469445,3.88055 4.374445,4.445 1.305277,0.38805 3.210277,0.3175 12.558888,-0.35278 6.067775,-0.42334 11.394725,-0.88195 11.782775,-0.98778 1.02306,-0.24694 0.98778,0.38806 -0.10583,1.23472 -1.5875,1.27 -5.00945,1.65806 -14.463889,1.65806 -7.020278,0 -9.454444,-0.14111 -11.994444,-0.635 -7.866945,-1.5875 -11.006667,-3.03389 -14.746112,-6.84389 -1.411111,-1.41111 -2.892777,-2.68111 -3.316111,-2.78694 -0.529166,-0.14111 -1.375833,0.10583 -2.363611,0.70555 -1.905,1.09361 -2.610555,1.12889 -5.326944,0.17639 -4.974167,-1.72861 -11.712222,-2.25778 -15.698611,-1.19944 l -1.905,0.49389 -2.681111,-2.57528 c -1.446389,-1.41111 -2.9633339,-2.68111 -3.3513893,-2.82222 -1.234723,-0.38806 -4.7625,-9.70139 -6.208889,-16.36889 -0.917222,-4.33917 -1.27,-13.75834 -0.705556,-18.16806 1.869722,-14.07583 10.7950003,-26.28194 24.0241673,-32.87889 4.974167,-2.50472 11.959167,-4.40972 19.05,-5.2563902 2.928055,-0.35277 14.710833,0.10584 17.286111,0.6702802 z m 34.713329,31.60889 c 0.9525,0.17639 2.328339,0.49389 3.104449,0.67028 1.27,0.35278 1.34055,0.45861 1.34055,1.72861 0,1.72861 -1.05833,3.06917 -2.857498,3.59833 -1.093611,0.35278 -1.375831,0.59973 -1.375831,1.27 0,1.16417 -0.91722,2.43417 -2.11667,2.92806 -1.72861,0.70555 -2.64583,0.21167 -4.09222,-2.15195 -1.44639,-2.39888 -3.56305,-3.98638 -5.715,-4.37444 -0.70555,-0.10583 -2.78694,-0.0353 -4.58611,0.14111 -1.79917,0.21167 -3.633609,0.21167 -4.021669,0.0706 -0.705552,-0.24694 -0.670274,-0.3175 0.45861,-1.16416 0.67028,-0.49389 1.763889,-1.16417 2.504729,-1.44639 1.44639,-0.59973 5.715,-1.5875 7.86694,-1.79917 1.86972,-0.17639 7.33778,0.10583 9.48972,0.52917 z m -22.366107,8.64306 c 0,0.10583 -0.846666,0.98777 -1.905,1.94027 -1.058333,0.9525 -2.293055,2.46945 -2.716389,3.35139 -0.670277,1.41111 -0.740833,1.97556 -0.564444,4.51556 0.352778,4.86833 2.116667,9.8425 4.903611,13.86417 1.411111,2.08138 0.670278,1.905 -1.234722,-0.28223 -2.998611,-3.42194 -4.833056,-8.14916 -5.08,-13.08805 -0.176389,-3.21028 -0.141111,-3.56306 0.740833,-5.36222 1.023056,-2.11667 4.092222,-5.15056 5.185833,-5.15056 0.352778,0 0.670278,0.10583 0.670278,0.21167 z m 6.491107,14.14639 c 2.61056,9.8425 2.61056,9.80722 -0.0353,7.90222 -2.08139,-1.48167 -3.457229,-4.40972 -3.174999,-6.73806 0.21166,-1.76389 1.411109,-4.58611 1.975549,-4.58611 0.17639,0 0.70556,1.55222 1.23472,3.42195 z m 32.138059,6.42055 c 1.02305,0.24695 0.98778,0.24695 -0.70556,0.70556 -0.9525,0.24694 -3.45722,0.81139 -5.53861,1.27 -2.08139,0.49389 -4.30389,1.12889 -4.93889,1.44639 -0.635,0.3175 -2.54,1.97555 -4.198049,3.66888 -2.11667,2.11667 -3.42195,3.175 -4.19806,3.35139 -1.30528,0.28223 -1.5875,0.0706 -1.905,-1.41111 -0.21166,-0.98778 -0.14111,-1.12889 1.02306,-1.51694 0.74083,-0.28222 2.01083,-1.37584 3.21028,-2.71639 3.739439,-4.19806 5.820829,-5.08 11.959159,-5.04472 2.32834,0 4.72722,0.10583 5.29167,0.24694 z m 4.69194,6.10306 c 0.38806,2.46944 0.52917,4.90361 0.45861,8.43139 l -0.0353,1.62277 -4.83306,0.21167 c -2.68111,0.10583 -7.69055,0.59972 -11.14778,1.12889 -3.457218,0.49389 -6.773329,0.88194 -7.373049,0.81139 -1.02306,-0.10584 -1.16417,-0.24695 -1.55222,-2.04611 -0.24695,-1.05834 -0.45862,-1.97556 -0.49389,-1.97556 0,-0.0353 0.59972,-0.14111 1.34055,-0.28222 2.54,-0.42333 4.162781,-1.48167 6.067779,-3.84528 2.01083,-2.57528 4.40972,-4.37444 6.31472,-4.69194 0.70556,-0.10584 3.03389,-0.56445 5.15056,-1.02306 5.99722,-1.23472 5.64444,-1.34055 6.10305,1.65806 z m -34.713329,7.58472 c 0.35278,2.68111 0.635,5.11528 0.67028,5.3975 0.10583,0.77611 -6.032499,1.41111 -6.491109,0.67028 -0.17639,-0.28223 -0.3175,-2.82223 -0.3175,-5.715 v -5.18584 h 2.786939 2.75167 z m 2.89278,0.3175 c 0.67028,2.68111 1.19944,5.00944 1.19944,5.15055 0,0.17639 -0.38805,0.28223 -0.84666,0.28223 -0.77612,0 -0.84667,-0.21167 -1.5875,-4.72723 -0.84667,-5.43277 -0.88195,-5.96194 -0.3175,-5.78555 0.21166,0.0705 0.91722,2.36361 1.55222,5.08 z m -12.206112,0.98778 c 0,5.67972 0,5.78555 -0.776111,5.99722 -0.458612,0.10583 -3.421945,0.3175 -6.632223,0.42333 -5.256389,0.21167 -5.891389,0.17639 -6.455833,-0.35278 -0.740833,-0.77611 -0.776111,-1.83444 -0.03528,-2.11666 0.3175,-0.10584 1.234722,-0.21167 2.081389,-0.21167 2.575278,0 2.645833,-0.10583 2.645833,-3.06917 v -2.68111 l -2.645833,0.24695 -2.645833,0.24694 v -1.05833 c 0,-0.9525 0.740833,-2.11667 1.340555,-2.18722 0.141111,0 2.081389,-0.21167 4.303889,-0.45861 2.2225,-0.28223 5.115278,-0.49389 6.455834,-0.52917 l 2.363611,-0.0353 z M 9.2951137,84.200796 c 1.5169453,0.45861 2.0108343,0.81139 2.9280563,2.2225 2.187222,3.24555 3.210278,3.91583 4.198055,2.71639 0.493889,-0.56445 1.763889,-0.74084 1.763889,-0.21167 0,0.3175 -1.375833,1.27 -3.316111,2.29306 -1.234722,0.63499 -2.328333,0.21166 -2.328333,-0.91723 0,-1.41111 -2.151945,-4.05694 -3.9511113,-4.86833 -1.658056,-0.74083 -1.940278,-1.05833 -1.446389,-1.51694 0.282222,-0.3175 0.03528,-0.35278 2.151944,0.28222 z m 109.4316663,7.86694 c 0,1.02305 -1.34056,5.53861 -2.29306,7.65528 l -0.84666,1.975554 -8.04334,-0.10583 c -8.889999,-0.10583 -9.771939,-0.3175 -10.865549,-2.398894 -0.49389,-0.98778 -1.65806,-4.97417 -1.48167,-5.15056 0.3175,-0.3175 17.991669,-2.54 20.461109,-2.57527 2.71639,-0.0353 3.06917,0.0353 3.06917,0.59972 z"
       id="path1"
       style="fill:#000000;stroke:none;stroke-width:0.0352778" /><g
       id="g20"
       transform="matrix(0.11622194,0.03541363,-0.02994523,0.12026416,25.13439,12.74546)"><g
         id="g2"
         transform="matrix(1.1891308,-0.30419911,0.39346733,1.6397862,-106.62777,-57.406455)">&#10;	<polygon
   style="fill:#fac917"
   points="203.181,512 246.321,215.066 320.557,215.066 "
   id="polygon1" />&#10;	<polygon
   style="fill:#fac917"
   points="160.194,296.934 203.339,0 351.806,0 234.43,296.934 "
   id="polygon2" />&#10;</g><g
         id="g3">&#10;</g><g
         id="g4">&#10;</g><g
         id="g5">&#10;</g><g
         id="g6">&#10;</g><g
         id="g7">&#10;</g><g
         id="g8">&#10;</g><g
         id="g9">&#10;</g><g
         id="g10">&#10;</g><g
         id="g11">&#10;</g><g
         id="g12">&#10;</g><g
         id="g13">&#10;</g><g
         id="g14">&#10;</g><g
         id="g15">&#10;</g><g
         id="g16">&#10;</g><g
         id="g17">&#10;</g></g></g></svg>
