<?xml version="1.0" encoding="UTF-8" standalone="no"?>
<!-- Created with Inkscape (http://www.inkscape.org/) -->

<svg
   version="1.1"
   id="svg1"
   width="117.41045"
   height="148.93703"
   viewBox="0 0 117.41045 148.93703"
   sodipodi:docname="istockphoto-165660264-170667a.jpg"
   inkscape:export-filename="..\repos\pwaVue\my-project\src\assets\footballer.svg"
   inkscape:export-xdpi="96"
   inkscape:export-ydpi="96"
   xmlns:inkscape="http://www.inkscape.org/namespaces/inkscape"
   xmlns:sodipodi="http://sodipodi.sourceforge.net/DTD/sodipodi-0.dtd"
   xmlns="http://www.w3.org/2000/svg"
   xmlns:svg="http://www.w3.org/2000/svg">
  <defs
     id="defs1" />
  <sodipodi:namedview
     id="namedview1"
     pagecolor="#ffffff"
     bordercolor="#000000"
     borderopacity="0.25"
     inkscape:showpageshadow="2"
     inkscape:pageopacity="0.0"
     inkscape:pagecheckerboard="0"
     inkscape:deskcolor="#d1d1d1"
     inkscape:export-bgcolor="#ffffff00" />
  <g
     inkscape:groupmode="layer"
     inkscape:label="Image"
     id="g1"
     transform="translate(-4.5700832,-0.51144843)">
    <path
       style="fill:#000000"
       d="m 8.4326184,148.98406 c -0.123049,-0.32066 -0.536891,-0.4548 -1.234042,-0.4 l -1.048907,0.0825 -0.102451,-0.72 c -0.06291,-0.44213 -0.324803,-0.72 -0.678578,-0.72 h -0.576127 l -0.168734,-1.497 c -0.0928,-0.82335 -0.06224,-1.72335 0.06792,-2 1.311621,-2.78784 1.841279,-3.67251 2.516979,-4.20402 l 0.789063,-0.62068 -1.047087,0.20942 -1.047088,0.20942 0.147345,-0.44857 c 0.08104,-0.24672 0.702073,-0.63329 1.380073,-0.85906 0.678,-0.22577 1.429388,-0.69126 1.669752,-1.03442 0.54086,-0.77219 2.8610826,-2.38361 3.9014876,-2.70962 0.425119,-0.13322 1.10059,-0.6316 1.501047,-1.10751 0.400457,-0.47592 1.296607,-1.03563 1.991444,-1.24381 l 1.263341,-0.37851 1.741662,-2.04021 c 0.987783,-1.15711 2.838484,-4.08977 4.275612,-6.77522 1.602161,-2.99384 3.13806,-5.39147 4.176795,-6.52024 l 1.642845,-1.78525 3.157155,-1.72386 c 3.834427,-2.09366 7.157156,-4.4136 7.157156,-4.99716 0,-0.23657 0.420277,-0.72939 0.933949,-1.09515 l 0.933949,-0.66503 0.83521,-3.59676 c 0.459366,-1.97822 1.106322,-4.46077 1.437682,-5.51677 0.335128,-1.06801 0.685249,-3.41098 0.789014,-5.28 0.209733,-3.77771 0.977966,-7.26136 2.4346,-11.04 0.859398,-2.22935 1.61569,-5.07746 1.614496,-6.08 -0.0014,-1.19724 -0.779447,-4.2428 -1.203596,-4.71148 l -0.513166,-0.56705 0.591963,-1.31274 0.591963,-1.31274 -0.572562,-0.32042 -0.572562,-0.32042 0.198575,-1.05849 c 0.125413,-0.66852 0.0024,-1.54871 -0.333811,-2.38906 l -0.532386,-1.33056 0.200641,-1.91963 0.200641,-1.91963 -0.450925,-0.85889 C 46.244947,55.93305 45.444343,54.97055 44.713837,54.26655 43.983331,53.56256 43.08595,52.29377 42.719656,51.44703 l -0.665987,-1.53952 -1.952194,-0.98287 c -1.073707,-0.54058 -2.359243,-1.3238 -2.856746,-1.74048 -1.183722,-0.99142 -2.769181,-0.97772 -4.961468,0.0429 l -1.70602,0.79421 -0.587784,-0.31457 C 29.666175,47.53368 28.95611,47.48124 28.411534,47.59015 l -0.990138,0.19803 -1.31834,-0.91361 -1.31834,-0.91361 -3.664988,-0.0433 -3.664987,-0.0433 -0.655807,-0.65581 c -0.659931,-0.65993 -1.31701,-3.38094 -1.735869,-7.18834 -0.237908,-2.16257 0.384943,-5.0599 1.994404,-9.2774 l 1.068346,-2.79954 -0.189667,-2.0311 -0.189667,-2.0311 -1.650881,-0.56115 c -2.099994,-0.71381 -4.397329,-2.37745 -5.626836,-4.07474 -1.6603536,-2.29205 -1.1219286,-3.946 1.953026,-5.99938 2.60882,-1.7420996 4.889928,-2.3868596 7.782087,-2.1995996 3.57408,0.23141 6.807572,1.9957296 8.86639,4.8378396 1.586686,2.19036 1.168574,4.21289 -1.16966,5.658 -0.621033,0.38382 -1.342172,1.15163 -1.602532,1.70625 -0.26036,0.55461 -0.824942,1.58439 -1.254626,2.28839 -1.010782,1.65608 -1.419524,2.5818 -1.849243,4.18819 l -0.34995,1.30819 0.433469,3.41181 c 0.238408,1.87649 0.450991,3.41181 0.472407,3.41181 0.425718,0 2.800236,-1.43897 2.929232,-1.77512 0.09811,-0.25569 0.315417,-0.46488 0.482894,-0.46488 0.167478,0 1.639668,-1.20587 3.271534,-2.67972 3.460452,-3.12536 3.682808,-3.26235 5.795489,-3.57045 1.996141,-0.29111 4.913622,-1.33367 5.76,-2.05833 0.352,-0.30139 1.153346,-0.85454 1.78077,-1.22923 l 1.14077,-0.68126 1.17923,0.19137 1.17923,0.19136 V 23.2728 c 0,-0.28466 -0.478473,-0.71749 -1.063273,-0.96183 -0.5848,-0.24435 -1.57581,-0.89428 -2.202245,-1.4443 -0.754766,-0.66269 -1.475541,-1.00003 -2.136727,-1.00003 -0.998634,0 -1.311982,-0.51777 -0.689851,-1.1399 0.197206,-0.19721 0.0082,-1.11183 -0.525807,-2.544 l -0.833711,-2.2361 -0.03419,-2.88 -0.03419,-2.8799996 0.88953,-1.81137 c 1.067499,-2.17378 2.87626,-3.8841 5.312066,-5.022973 l 1.798404,-0.84084896 2.24,0.01579 2.24,0.0158 2.15119,1.03394396 c 1.487518,0.714958 2.564259,1.523818 3.490091,2.621798 0.736397,0.87333 1.525593,1.58786 1.753769,1.58786 0.44169,0 0.850159,1.21333 1.454336,4.3199996 0.205368,1.056 0.493871,2.00025 0.641118,2.09834 0.147247,0.0981 0.360729,1.48864 0.474406,3.09013 l 0.206685,2.9118 -1.356807,0.69219 c -0.746244,0.3807 -1.306853,0.73301 -1.245798,0.7829 0.414364,0.33858 5.33074,-0.52735 6.791847,-1.19627 2.481561,-1.13609 3.460696,-1.28051 5.896387,-0.86968 2.663957,0.44934 4.467636,1.42569 5.4617,2.95649 0.417409,0.64279 1.156202,1.33326 1.641763,1.53439 l 0.882838,0.36568 0.885649,2.08385 0.885648,2.08385 1.18679,0.78538 c 0.652734,0.43196 1.348312,1.13988 1.545729,1.57317 0.197416,0.43328 0.557306,0.78778 0.799755,0.78778 H 86.2172 l -0.300089,-1.68 c -0.165049,-0.924 -0.446442,-2.4548 -0.625318,-3.40178 l -0.325228,-1.72178 -1.888639,-2.03015 -1.888639,-2.03015 v -0.92807 c 0,-0.51044 -0.09,-1.37807 -0.2,-1.92807 l -0.2,-1 h 0.863464 0.863464 l -0.105791,-0.54933 c -0.05818,-0.30213 -0.716743,-0.95964 -1.463464,-1.46115 -0.814542,-0.54705 -1.357673,-1.15939 -1.357673,-1.53067 0,-0.82901 0.45225,-0.77419 2.712819,0.32884 1.052051,0.51333 1.975259,0.8709 2.051575,0.79458 0.07632,-0.0763 -0.473722,-0.86511 -1.222305,-1.75289 -1.341999,-1.5915296 -1.529181,-2.5493796 -0.498198,-2.5493796 0.277187,0 1.309477,0.81196 2.293979,1.8043696 l 1.790002,1.80436 -0.255803,-1.24436 c -0.431761,-2.1003196 -0.365962,-2.8160096 0.270612,-2.9434096 0.379696,-0.076 0.643519,0.11603 0.757322,0.55121 0.09605,0.36731 0.3635,0.66783 0.594328,0.66783 0.475707,0 1.728629,3.0778296 1.979108,4.8617196 0.09126,0.64995 -0.01051,2.1168 -0.226151,3.25966 l -0.392078,2.07793 0.512395,0.73155 c 0.281818,0.40235 0.512396,1.13605 0.512396,1.63044 0,1.16107 0.943519,3.95959 2.888244,8.56666 2.57102,6.09076 2.76291,8.51731 0.89637,11.33526 l -0.95863,1.44727 -1.260623,0.37769 -1.260624,0.3777 -2.312369,-1.13836 c -3.085744,-1.51908 -5.423408,-2.24253 -7.396635,-2.28909 l -1.628815,-0.0384 -0.649238,-1.24978 c -0.725703,-1.39697 -1.801381,-2.29765 -3.117681,-2.61047 l -0.88,-0.20913 v 1.25069 c 0,0.68788 -0.133707,1.38749 -0.297127,1.55469 -0.356185,0.36442 0.08912,6.50314 0.612827,8.44803 0.196593,0.73009 0.269901,1.60325 0.162906,1.94036 -0.117088,0.36891 0.06396,0.96778 0.454765,1.50427 l 0.649301,0.89134 0.541207,3.83999 c 0.297664,2.112 0.5137,4.344 0.48008,4.96 -0.03362,0.616 -0.07669,2.32741 -0.09571,3.80313 l -0.03458,2.68312 0.599609,0.33556 c 1.247288,0.69802 3.708362,3.27454 5.896806,6.17343 1.335561,1.76913 2.496941,3.00476 2.8242,3.00476 0.58089,0 2.247817,1.60781 3.649446,3.52 0.981671,1.33927 2.953505,5.26642 3.226955,6.4269 0.10717,0.4548 0.6448,1.3908 1.19474,2.08 0.54994,0.68921 1.41455,2.07176 1.92136,3.07234 0.5068,1.00057 1.43759,2.2129 2.06841,2.69405 0.63082,0.48115 1.447628,1.4625 1.815118,2.18077 l 0.66817,1.30594 0.2084,3.24089 0.20841,3.24088 1.64506,2.8504 c 1.97358,3.41961 3.03519,6.22291 5.00943,13.22784 0.81845,2.904 1.70489,6.02796 1.96987,6.94213 0.26498,0.91418 1.05296,2.4223 1.75106,3.35139 0.69811,0.92909 1.26928,1.85482 1.26928,2.05719 0,0.736 1.29215,3.26547 1.7598,3.44493 0.26411,0.10135 0.4802,0.47679 0.4802,0.83431 0,0.86369 0.75124,0.82655 1.4151,-0.07 l 0.53315,-0.72 -0.17511,0.85965 -0.17512,0.85965 1.04099,0.10035 1.04099,0.10035 0.10226,0.72 0.10225,0.72 h -0.80337 c -1.10132,0 -1.30125,0.47448 -0.43839,1.04046 1.13674,0.74563 3.62961,3.22555 3.84928,3.82929 0.11001,0.30236 0.0623,0.63486 -0.106,0.73888 -0.16832,0.10403 -0.30603,0.45101 -0.30603,0.77107 0,0.32006 -0.20437,0.75155 -0.45417,0.95886 l -0.45417,0.37692 -0.3361,-0.57774 -0.3361,-0.57774 -0.01,0.73004 c -0.0104,0.77783 -1.00476,1.40486 -1.2172,0.76753 -0.17649,-0.52947 -1.03253,-0.47294 -1.03253,0.0682 0,0.73061 -1.05258,0.93818 -1.51949,0.29963 l -0.41638,-0.56943 -0.62772,0.39202 c -0.8244,0.51484 -1.57592,0.49775 -1.78248,-0.0405 -0.1014,-0.26424 -0.47105,-0.37424 -0.94996,-0.28269 -0.54468,0.10412 -0.78397,0.006 -0.78397,-0.32102 0,-0.51392 -3.28281,-3.76372 -3.80196,-3.76372 -0.17615,0 -0.40926,0.144 -0.51804,0.32 -0.304,0.49188 -1.34874,0.37937 -1.55873,-0.16786 -0.12863,-0.33519 -0.42969,-0.42701 -0.96202,-0.2934 l -0.7748,0.19446 -0.32431,-1.5466 c -0.37097,-1.76911 -0.0528,-4.33371 0.72393,-5.83578 l 0.51237,-0.99082 -0.48822,-0.94411 c -0.26852,-0.51926 -0.48822,-1.16922 -0.48822,-1.44435 0,-0.27512 -0.12034,-0.75027 -0.26744,-1.05589 -1.4958,-3.10778 -2.38026,-4.60064 -3.803498,-6.41984 -0.91903,-1.1747 -2.31404,-2.96745 -3.10003,-3.98389 -2.08642,-2.69813 -3.25789,-6.27664 -3.870685,-11.82383 l -0.20237,-1.83191 -1.783241,-2.64809 c -2.55695,-3.79704 -2.752981,-3.96761 -6.780161,-5.89945 C 77.74921,95.9681 73.860012,93.109 70.433705,88.96755 c -1.461182,-1.76616 -2.316561,-2.54088 -2.805434,-2.54088 -0.418551,0 -1.328286,0.63452 -2.246889,1.56714 -1.497049,1.51991 -1.792379,2.07717 -4.044688,7.63193 -1.65431,4.07995 -3.734048,7.88818 -4.937403,9.04094 -0.643041,0.616 -1.426595,1.696 -1.741231,2.4 -0.314635,0.704 -1.061885,1.87686 -1.660554,2.60637 -0.59867,0.72951 -1.491547,1.84666 -1.984172,2.48256 -0.492624,0.6359 -1.604599,1.51541 -2.471054,1.95448 -0.866454,0.43907 -1.903398,1.24399 -2.304318,1.78872 -0.40092,0.54473 -1.376946,1.36606 -2.168946,1.82517 -0.792,0.45912 -3.096282,2.42505 -5.120626,4.36873 -3.905841,3.75021 -5.085838,4.69643 -9.044878,7.25294 -3.335782,2.15405 -6.267135,4.91747 -6.979725,6.57988 l -0.578526,1.34965 -1.218123,0.62788 c -1.709472,0.88115 -2.565295,1.7725 -2.821395,2.93851 l -0.220321,1.00312 -0.580603,-0.15183 c -0.380217,-0.0994 -0.635011,0.0562 -0.738245,0.45099 -0.0867,0.33155 -0.437254,0.60283 -0.779001,0.60283 -0.660124,0 -1.206101,1.02748 -2.15491,4.05537 -0.285297,0.91045 -0.715546,1.81872 -0.956109,2.01837 l -0.437387,0.363 -0.647175,-0.40417 -0.647175,-0.40417 -0.603098,0.5458 c -0.7461576,0.67526 -1.8616946,0.70876 -2.1093646,0.0633 z M 61.592646,16.63157 c 0.09802,-1.65199 -0.271168,-2.38565 -1.050084,-2.08675 l -0.551311,0.21156 0.191042,0.95521 c 0.105073,0.52536 0.05982,1.30034 -0.100555,1.72217 -0.360037,0.94696 -0.155058,1.18438 0.738946,0.85588 L 61.50928,18.03663 Z M 61.02928,13.27985 c 0,-0.56509 -0.688883,-0.46668 -0.886667,0.12667 -0.06967,0.209 0.101334,0.38 0.38,0.38 0.278667,0 0.506667,-0.228 0.506667,-0.50667 z m -0.64,-1.71444 c 0,-0.51762 -0.133102,-1.02338 -0.295782,-1.12392 -0.348423,-0.21534 -0.594932,0.70421 -0.403464,1.50503 0.216362,0.90494 0.699246,0.64175 0.699246,-0.38111 z"
       id="path1" />
  </g>
</svg>
